<?xml version="1.0" standalone="no"?>
<!DOCTYPE svg PUBLIC "-//W3C//DTD SVG 20010904//EN"
 "http://www.w3.org/TR/2001/REC-SVG-20010904/DTD/svg10.dtd">
<svg version="1.0" xmlns="http://www.w3.org/2000/svg"
 width="512.000000pt" height="512.000000pt" viewBox="0 0 512.000000 512.000000"
 preserveAspectRatio="xMidYMid meet">
<metadata>
Created by potrace 1.11, written by Peter Selinger 2001-2013
</metadata>
<g transform="translate(0.000000,512.000000) scale(0.100000,-0.100000)"
fill="#000000" stroke="none">
<path d="M2955 4469 c-12 -6 -26 -18 -32 -28 -13 -21 -1063 -3651 -1063 -3676
0 -38 52 -71 162 -100 114 -30 149 -27 175 13 12 20 1063 3652 1063 3675 0 39
-44 68 -149 98 -113 31 -125 33 -156 18z"/>
<path d="M1365 3950 c-11 -4 -323 -311 -692 -682 -632 -632 -673 -675 -673
-708 0 -33 41 -76 678 -713 646 -646 681 -679 716 -680 33 -1 45 7 132 94 97
96 111 120 99 161 -4 13 -257 274 -563 581 l-557 557 557 558 c306 306 559
567 563 580 12 41 -2 65 -97 159 -93 91 -125 110 -163 93z"/>
<path d="M3695 3951 c-11 -5 -62 -52 -112 -104 -99 -100 -108 -120 -77 -167 9
-14 262 -271 563 -572 l546 -548 -557 -557 c-306 -307 -559 -568 -563 -581
-12 -41 2 -65 99 -161 87 -87 99 -95 132 -94 35 1 70 34 716 680 637 637 678
680 678 713 0 33 -41 76 -677 712 -440 439 -687 679 -703 682 -14 3 -34 1 -45
-3z"/>
</g>
</svg>
