<svg enable-background="new 0 0 222.528 222.528" height="222.528" viewBox="0 0 222.528 222.528" width="222.528" xmlns="http://www.w3.org/2000/svg"><path d="m210.064 33.64h-48.324v-9.353c0-2.579-2.094-4.677-4.676-4.677s-4.677 2.098-4.677 4.677v9.353h-48.32c-6.878 0-12.471 5.596-12.471 12.471v16.419l-6.491-2.165c-1.696-.603-16.824-5.873-30.759-6.558l-1.857 3.708h-.052l5.252 40.879-6.235 10.897-6.235-10.897 5.249-40.879h-.055l-1.854-3.715c-14.453.709-30.233 6.373-30.939 6.628-.256.092-.423.286-.661.405-.512.243-.98.518-1.428.864-.38.296-.697.606-1.004.962-.341.38-.637.773-.898 1.221-.262.45-.454.91-.627 1.409-.095.274-.277.487-.344.779l-12.47 56.118c-.929 4.201 1.714 8.36 5.916 9.298.575.128 1.142.188 1.696.188 3.574 0 6.798-2.479 7.608-6.107l11.511-51.782c.804-.25 1.714-.518 2.704-.794v53.203l-6.202 77.138c-.411 5.146 3.422 9.657 8.574 10.065.255.019.505.031.761.031 4.82 0 8.915-3.709 9.308-8.604l5.605-69.715c1.16.512 2.433.804 3.772.804 1.343 0 2.622-.292 3.772-.804l5.608 69.715c.393 4.896 4.488 8.604 9.308 8.604.255 0 .505-.007.761-.031 5.151-.408 8.984-4.926 8.573-10.065l-6.205-77.138v-53.201c3.961 1.123 6.634 2.076 6.705 2.098.03.012.061.006.1.012.031.013.055.037.085.049l11.429 3.809v41.976c0 6.881 5.593 12.471 12.471 12.471h22.7l-19.905 74.324c-.667 2.497.816 5.061 3.304 5.724.404.109.818.158 1.211.158 2.067 0 3.955-1.376 4.516-3.471l20.563-76.741h15.941v54.382c0 2.582 2.095 4.677 4.676 4.677 2.582 0 4.677-2.095 4.677-4.677v-54.382h15.941l20.557 76.741c.566 2.095 2.454 3.471 4.524 3.471.39 0 .804-.049 1.212-.158 2.484-.663 3.977-3.232 3.301-5.724l-19.906-74.324h22.701c6.874 0 12.47-5.59 12.47-12.471v-74.825c.004-6.875-5.599-12.47-12.467-12.47zm6.235 87.294c0 3.435-2.795 6.235-6.235 6.235h-105.997c-3.443 0-6.235-2.801-6.235-6.235v-39.893l19.744 6.585c.822.268 1.65.399 2.472.399 3.258 0 6.309-2.07 7.393-5.331.183-.548.146-1.097.201-1.653l46.855-21.681c.78-.359 1.121-1.291.756-2.07-.359-.779-1.285-1.126-2.07-.758l-45.883 21.23c-.749-2.226-2.388-4.128-4.786-4.932l-24.677-8.223v-18.497c0-3.435 2.792-6.235 6.235-6.235h105.998c3.44 0 6.235 2.801 6.235 6.235v74.823h-.006z"/><path d="m51.454 52.129c10.872 0 19.701-12.62 19.701-23.501 0-10.887-8.829-19.71-19.701-19.71-10.888 0-19.717 8.829-19.717 19.71s8.829 23.501 19.717 23.501z"/><path d="m166.337 89.097 3.228-2.013-3.16-5.062-3.222 2.012c-1.474-1.577-3.221-2.81-5.121-3.666l.853-3.696-5.814-1.343-.847 3.705c-2.089-.082-4.201.262-6.211 1.042l-2.021-3.23-5.061 3.16 2.021 3.23c-1.583 1.474-2.819 3.218-3.665 5.127l-3.702-.855-1.34 5.812 3.702.853c-.073 2.083.268 4.192 1.047 6.211l-3.233 2.016 3.167 5.063 3.233-2.022c1.461 1.589 3.209 2.819 5.121 3.657l-.853 3.702 5.809 1.346.858-3.702c2.077.079 4.189-.262 6.211-1.041l2.01 3.227 5.054-3.16-2.003-3.224c1.577-1.465 2.813-3.225 3.659-5.118l3.702.853 1.334-5.815-3.708-.861c.073-2.086-.268-4.199-1.048-6.208zm-8.987 14.736c-5.018 3.13-11.624 1.607-14.767-3.413-3.13-5.011-1.607-11.627 3.404-14.763 5.023-3.13 11.636-1.61 14.778 3.41 3.131 5.014 1.596 11.636-3.415 14.766z"/><path d="m198.64 79.613-2.867.974c-.853-1.492-1.979-2.771-3.301-3.778l1.34-2.712-4.269-2.107-1.334 2.719c-1.602-.438-3.306-.563-5.005-.326l-.98-2.874-4.5 1.528.969 2.874c-1.492.846-2.771 1.982-3.775 3.303l-2.723-1.339-2.106 4.265 2.722 1.34c-.438 1.602-.566 3.3-.328 5.015l-2.868.971 1.522 4.503 2.88-.974c.847 1.498 1.979 2.776 3.3 3.778l-1.339 2.712 4.262 2.11 1.34-2.713c1.607.441 3.301.561 5.012.323l.968 2.874 4.506-1.525-.974-2.868c1.497-.85 2.776-1.985 3.781-3.307l2.716 1.34 2.101-4.263-2.71-1.343c.438-1.601.561-3.303.329-5.005l2.868-.975zm-11.009 15.265c-4.47 1.516-9.311-.88-10.833-5.343-1.51-4.466.883-9.322 5.347-10.839 4.47-1.507 9.316.886 10.833 5.35 1.516 4.466-.884 9.316-5.347 10.832z"/></svg>