<svg viewBox="0 0 128 128"><path d="m44.59 4.21a63.28 63.28 0 0 0 4.33 120.9 67.6 67.6 0 0 0 32.36.35 57.13 57.13 0 0 0 25.9-13.46 57.44 57.44 0 0 0 16-26.26 74.33 74.33 0 0 0 1.61-33.58h-59.52v24.69h34.47a29.72 29.72 0 0 1 -12.66 19.52 36.16 36.16 0 0 1 -13.93 5.5 41.29 41.29 0 0 1 -15.1 0 37.16 37.16 0 0 1 -14.05-6.13 39.3 39.3 0 0 1 -14.5-19.42 38.31 38.31 0 0 1 0-24.63 39.25 39.25 0 0 1 9.18-14.91 37.17 37.17 0 0 1 37.45-9.78 34.28 34.28 0 0 1 13.64 8q5.83-5.8 11.64-11.63c2-2.09 4.18-4.08 6.15-6.22a61.22 61.22 0 0 0 -20.36-12.56 64 64 0 0 0 -42.61-.38z"/></svg>