<svg enable-background="new 0 0 1024 768" viewBox="0 0 1024 768" xmlns="http://www.w3.org/2000/svg"><g fill="#1d5080"><path d="m682.3 422.4c0-6.5-5.3-12.5-12.5-12.5-3 0-5.7 1.1-8.4 3-31.6 28.1-85.2 53.2-149.8 53.6h-.4c-64.6 0-116.7-26.2-149.8-53.6-2.3-1.9-6.1-3-8.4-3-7.6 0-12.2 6.5-12.2 13.7 0 5.7 3.8 10.3 7.2 15.2 18.6 27.8 76.4 75.3 163.1 75.3h1.5c86.7 0 144.5-47.5 163.1-75.3 2.8-4.6 6.6-11.1 6.6-16.4z"/><path d="m768.6 639.5c-22.1-12.5-43-33.8-52.5-63.1-1.9-5.7-.4-10.3 4.2-13.7 63.9-49.4 104.2-121.3 104.2-201.1 0-149.1-139.9-269.6-312.5-269.6s-312.5 120.9-312.5 269.6c0 149 139.9 269.9 312.5 269.9 22.4 0 44.5-1.9 65.8-6.1 5.3-1.1 9.5.4 12.9 2.3 43 26.2 106.5 48.3 162.3 48.3 17.9 0 25.1-11.4 25.1-21.7-.3-6.4-4.1-11.4-9.5-14.8zm-83.6-25.9c1.1 1.1 1.5 2.3 1.5 3.8 0 1.9-1.9 3-3.8 3-15.6 0-63.9-25.9-89.3-47.5-3.4-3-8.4-4.2-15.2-2.7-21.3 4.6-43.3 7.2-66.5 7.2-143.7 0-260.4-96.2-260.4-214.8s116.3-214.8 260.4-214.8c143.7 0 260.1 96.2 260.1 214.8 0 70.7-41.4 133.4-105.3 172.6-4.2 2.7-8.7 7.6-8.7 13.7-.2 12.7 11.6 43.8 27.2 64.7z"/></g></svg>