<svg enable-background="new 0 0 300 300" viewBox="0 0 300 300" xmlns="http://www.w3.org/2000/svg"><g fill="#205081"><path d="m87.4 22.2c-10.5 0-19 8.5-19 19.1 0 10.5 8.5 19.1 19 19.1s19-8.5 19-19.1c.1-10.6-8.4-19.1-19-19.1z"/><path d="m212.5 22.2c-10.5 0-19 8.5-19 19.1 0 10.5 8.5 19.1 19 19.1s19-8.5 19-19.1c.1-10.6-8.5-19.1-19-19.1z"/><path d="m150 4.8c-10.5 0-19 8.5-19 19.1 0 10.5 8.5 19.1 19 19.1s19-8.5 19-19.1-8.5-19.1-19-19.1z"/><path d="m257.6 75.3c-1.1-.8-2.3-1.2-3.6-1.2-.7 0-1.4.1-2.1.4-12.9 4.9-26 8.7-37.9 11.5-2.4.6-4.4 2.4-5.2 4.6-8.7 23.8-30.9 46.6-54.3 70.3-.9.9-2.2 2.1-4.4 2.1-2.1 0-3.4-1.1-4.4-2.1-23.3-23.8-45.6-46.4-54.3-70.3-.8-2.2-2.8-4-5.2-4.6-12-2.8-25.1-6.6-38-11.6-.7-.2-1.4-.4-2.2-.4-1.3 0-2.5.4-3.6 1.2-1.7 1.3-2.5 3.3-2.3 5.3 2 19.8 9.8 39.2 24 59.5 13.3 19.1 30.6 36.8 47.4 53.9 30.9 31.5 60.1 61.3 62.6 95.8.2 3.1 2.8 5.5 6 5.5h36.3c1.6 0 3.2-.7 4.3-1.9s1.7-2.8 1.6-4.4c-1.1-23.1-9.8-46.2-26.5-70.6-3.5-5.1-7.3-10.1-11.2-15-1.6-2-.9-4.5.3-5.7s2.4-2.5 3.6-3.7c16.8-17.1 34.1-34.8 47.4-53.9 14.1-20.3 22-39.6 24-59.4.2-2-.7-4.1-2.3-5.3z"/><path d="m111.1 220.8c-.9-.9-2.1-1.8-4.2-1.8-2.7 0-4.3 1.9-4.9 2.8-15.3 23.2-23.1 45.1-24.2 67.2-.1 1.6.5 3.2 1.6 4.4s2.7 1.9 4.3 1.9h36.2c3.1 0 5.7-2.4 6-5.5.8-10.6 4.1-21.3 10.1-32.4 2.1-3.9.5-7.5-.7-9.1-6.1-7.9-13.4-16.2-24.2-27.5z"/><path d="m150 93.1c11.4 0 18-.7 20.3-.7 2.8 0 5.5 2.3 5.5 5.5 0 .9-.2 1.6-.4 2.2-1.5 4-8.4 18.5-21.2 31-1.4 1.4-3.1 1.7-4.2 1.7-1.1 0-2.7-.3-4.2-1.7-12.8-12.4-19.7-27-21.2-31-.2-.6-.4-1.3-.4-2.2 0-3.2 2.7-5.5 5.5-5.5 2.3 0 8.9.7 20.3.7z"/></g></svg>