<svg enable-background="new 0 0 485 485" viewBox="0 0 485 485" xmlns="http://www.w3.org/2000/svg"><path d="m483.8 46.25h-302.2c-.6 0-1.2.5-1.2 1.2v28.3c0 .6.5 1.2 1.2 1.2h302.2c.6 0 1.2-.5 1.2-1.2v-28.3c0-.7-.5-1.2-1.2-1.2z"/><circle cx="71.5" cy="253.35" r="37.9"/><circle cx="71.5" cy="419.55" r="38.1"/><path d="m181.6 128.15h142.8c.6 0 1.2-.5 1.2-1.2v-28.3c0-.6-.5-1.2-1.2-1.2h-142.8c-.6 0-1.2.5-1.2 1.2v28.3c.1.7.6 1.2 1.2 1.2z"/><path d="m483.8 212.45h-302.2c-.6 0-1.2.5-1.2 1.2v28.3c0 .6.5 1.2 1.2 1.2h302.2c.6 0 1.2-.5 1.2-1.2v-28.3c0-.7-.5-1.2-1.2-1.2z"/><path d="m181.6 294.35h142.8c.6 0 1.2-.5 1.2-1.2v-28.3c0-.6-.5-1.2-1.2-1.2h-142.8c-.6 0-1.2.5-1.2 1.2v28.3c.1.6.6 1.2 1.2 1.2z"/><path d="m483.8 378.55h-302.2c-.6 0-1.2.5-1.2 1.2v28.3c0 .6.5 1.2 1.2 1.2h302.2c.6 0 1.2-.5 1.2-1.2v-28.3c0-.7-.5-1.2-1.2-1.2z"/><path d="m324.4 429.85h-142.8c-.6 0-1.2.5-1.2 1.2v28.3c0 .6.5 1.2 1.2 1.2h142.8c.6 0 1.2-.5 1.2-1.2v-28.3c0-.7-.5-1.2-1.2-1.2z"/><path d="m53.4 86.55-26.1-26.3-27.3 27.2 26.2 26.2 27.1 27.3 27.2-27.1 62.5-62.1-27.1-27.3z"/></svg>