<svg viewBox="0 0 1000 1000"><path d="m435.7 738.9c11 41.9 3.2 84.3-18 118.4-18.9 37.4-53 67-96.8 78.4-81 21.2-163.8-27.3-185-108.3-11-41.9-3.2-84.3 18.1-118.4 18.9-37.4 53-67 96.8-78.4 80.8-21.2 163.7 27.3 184.9 108.3zm-245.7-213c24.4-26.6 29.8-70.5 21.3-95.7-12.6-45.6-56.3-77-105-72.3-35.8 3.5-65.3 25.6-79.8 55.9-12.1 18.3-18.3 40.7-16 64.2 5.3 54.6 53.7 94.5 108.3 89.2 29.7-2.9 55.1-18.7 71.2-41.3zm314.5-500.1c-125.8 15.5-206.7 73.1-244.8 144.6-78.7 128-12.2 307.9 191.1 365.6 266.5 75.7 55.1 244.7 61.2 357.3 6.2 112.6 231.7 153.4 409.5-142.2 3.4-5.7 6.6-11.4 9.7-17.2 168.9-290.9-42.4-755.7-426.7-708.1z"/></svg>