<svg enable-background="new 0 0 1000 1000" viewBox="0 0 1000 1000" xmlns="http://www.w3.org/2000/svg"><path d="m500 990c-270.2 0-490-219.8-490-490s219.8-490 490-490 490 219.8 490 490-219.8 490-490 490zm0-921.2c-237.8 0-431.2 193.4-431.2 431.2s193.4 431.2 431.2 431.2 431.2-193.4 431.2-431.2-193.4-431.2-431.2-431.2z"/><path d="m780.7 330.8-71.5-62.4-71.5-62.4-71.5 62.4-71.5 62.4h78.3c-26.3 161.9-176 287.9-346.2 261.1-7.5-1.2-10.5 8.9-3.2 11.5 211.9 73.7 456-47.4 491.3-272.6z"/><path d="m622.1 540c-22 20.3-46.6 38.1-73.2 52.9v201.1h73.2z"/><path d="m439 794h73.2v-183.2c-23.3 9.9-47.8 17.8-73.2 23.2z"/><path d="m658.7 794h73.3v-444.9h-1.9c-11.5 56.8-36.4 108.2-71.4 151.6z"/><path d="m292.5 638.9c-24.9-3.6-49.4-9.5-73.2-17.7v172.8h73.2z"/><path d="m329.1 794h73.2v-153.8c-16.7 2-33.6 3.1-50.9 3.1-7.5 0-14.9-.3-22.4-.7v151.4z"/></svg>