<svg enable-background="new 0 0 512 512" viewBox="0 0 512 512" xmlns="http://www.w3.org/2000/svg"><path d="m453.9 311.4c3-13.9 4.6-28.2 4.6-43 0-110.6-89.7-200.3-200.3-200.3-11.7 0-23.1 1-34.3 2.9-17.9-11.3-39.1-17.8-61.8-17.8-64.1 0-116.1 52-116.1 116.1 0 21.4 5.8 41.5 16 58.8-2.7 13-4.1 26.5-4.1 40.3 0 110.7 89.7 200.3 200.3 200.3 12.5 0 24.8-1.2 36.7-3.3 16.4 8.8 35.1 13.8 54.9 13.8 64.2 0 116.2-52 116.2-116.2 0-18.6-4.4-36.1-12.1-51.6zm-92.9 52.7c-9.3 13.1-23 23.5-40.7 30.9-17.6 7.3-38.6 11-62.6 11-28.8 0-52.9-5.1-71.7-15.1-13.5-7.3-24.6-17.1-33-29.3-8.5-12.3-12.8-24.4-12.8-36.2 0-7.3 2.8-13.7 8.3-18.9s12.5-7.8 20.9-7.8c6.9 0 12.8 2.1 17.7 6.1 4.6 3.9 8.6 9.7 11.7 17.2 3.6 8.1 7.4 15 11.5 20.4 3.9 5.2 9.6 9.6 16.8 13 7.3 3.4 17.1 5.2 29.1 5.2 16.6 0 30.2-3.5 40.4-10.5 10-6.8 14.8-15 14.8-25 0-7.9-2.5-14.1-7.7-19-5.5-5.1-12.7-9-21.4-11.8-9.1-2.8-21.5-5.9-36.7-9.1-20.8-4.4-38.5-9.7-52.5-15.7-14.4-6.1-26-14.6-34.4-25.2-8.6-10.8-13-24.3-13-40.2 0-15.1 4.6-28.8 13.6-40.5s22-20.8 38.9-27c16.6-6.2 36.4-9.3 58.8-9.3 17.9 0 33.6 2.1 46.7 6.1 13.2 4.1 24.3 9.7 33.1 16.5 8.8 6.9 15.4 14.2 19.5 21.9s6.3 15.4 6.3 22.8c0 7.2-2.8 13.7-8.2 19.4-5.5 5.7-12.4 8.6-20.6 8.6-7.4 0-13.2-1.8-17.3-5.4-3.7-3.3-7.6-8.5-12-15.9-5-9.5-11-17-18-22.2-6.7-5.1-18-7.7-33.5-7.7-14.3 0-26 2.9-34.7 8.6-8.4 5.5-12.4 11.7-12.4 19.2 0 4.6 1.3 8.4 4 11.7 2.8 3.5 6.9 6.5 11.9 9.1 5.3 2.6 10.7 4.7 16.1 6.2 5.6 1.6 14.9 3.8 27.7 6.8 16.2 3.5 31.1 7.4 44.3 11.6 13.4 4.3 24.9 9.5 34.3 15.7 9.6 6.2 17.2 14.2 22.6 23.8s8.1 21.5 8.1 35.3c.1 16.5-4.6 31.6-13.9 44.7z"/></svg>