<svg viewBox="0 0 128 128"><path d="m120.91 47.51c-12.81-41.24-31.3-50.86-73.98-38.51s-52.65 30.26-39.84 71.49 31.3 50.85 74 38.48 52.63-30.23 39.82-71.46zm-21.59 26.76-8 2.6 2.79 8a6.17 6.17 0 0 1 -4.11 7.93 6.63 6.63 0 0 1 -2.21.32 6.42 6.42 0 0 1 -5.94-4.24l-2.79-8-16.59 5.32 2.79 8a6.17 6.17 0 0 1 -4.06 7.87 6.63 6.63 0 0 1 -2.21.32 6.42 6.42 0 0 1 -5.99-4.2l-2.79-8-8 2.6a6.64 6.64 0 0 1 -2.21.32 6.42 6.42 0 0 1 -5.94-4.24 6.17 6.17 0 0 1 4.06-7.87l8-2.6-5.3-15.48-8 2.6a6.63 6.63 0 0 1 -2.21.32 6.42 6.42 0 0 1 -5.94-4.24 6.17 6.17 0 0 1 4.06-7.87l8-2.6-2.79-8a6.17 6.17 0 0 1 4.06-7.93 6.49 6.49 0 0 1 8.15 3.92l2.79 8 16.6-5.37-2.79-8a6.17 6.17 0 0 1 4.06-7.87 6.49 6.49 0 0 1 8.19 3.93l2.79 8 8-2.6a6.49 6.49 0 0 1 8.15 3.92 6.17 6.17 0 0 1 -4.06 7.87l-8 2.6 5.35 15.43 8-2.6a6.49 6.49 0 0 1 8.15 3.92 6.17 6.17 0 0 1 -4.06 7.92z"/></svg>